<?xml version="1.0" encoding="utf-8"?>
<!-- Generator: Adobe Illustrator 27.4.0, SVG Export Plug-In . SVG Version: 6.00 Build 0)  -->
<svg version="1.1" id="Layer_1" xmlns="http://www.w3.org/2000/svg" xmlns:xlink="http://www.w3.org/1999/xlink" x="0px" y="0px"
	 viewBox="0 0 191 247.6" style="enable-background:new 0 0 191 247.6;" xml:space="preserve">
<style type="text/css">
	.st0{fill:#A21A17;}
	.st1{fill:#212020;}
</style>
<g>
	<path class="st0" d="M160.7,134.7c0-16-10-29.5-24-35c13.6-5.3,23.4-18.3,24-33.5c0.7-21.4-16.4-38.9-37.6-38.9
		c-6.3,0-12.2,1.5-17.3,4.2c-1.5,0.8-1.9,2.7-0.8,4c3.7,4.3,6.6,9.3,8.5,14.7c0.5,1.5,2.2,2.1,3.6,1.4c1.9-0.9,4-1.4,6.2-1.3
		c7.5,0.1,13.9,6.2,14.2,13.7c0.4,8.3-6.2,15.2-14.4,15.2c-2.2,0-4.2-0.5-6.1-1.4c-1.4-0.7-3,0.1-3.6,1.5c-0.3,1-0.8,2.1-1.3,3.2
		C104.2,99.4,92,108,87.4,122.8c-1.1,3.5-1.8,7.4-1.9,11.8c0,20.7,16.8,37.5,37.5,37.5C143.9,172.2,160.7,155.4,160.7,134.7z
		 M108.7,134.7c0-8,6.5-14.4,14.4-14.4c8,0,14.4,6.5,14.4,14.4s-6.5,14.4-14.4,14.4S108.7,142.7,108.7,134.7z"/>
	<path d="M85.3,168c1.5-0.8,1.9-2.7,0.8-4c-3.7-4.3-6.6-9.3-8.5-14.7c-0.5-1.5-2.2-2.1-3.6-1.4c-1.9,0.9-4,1.4-6.2,1.3
		c-7.5-0.1-13.9-6.2-14.2-13.7c-0.4-8.3,6.2-15.2,14.4-15.2c2.2,0,4.2,0.5,6.1,1.4c1.4,0.7,3-0.1,3.6-1.5c0.3-1,0.8-2.1,1.3-3.2
		c7.9-16.9,20-25.5,24.7-40.3c1.1-3.5,1.8-7.4,1.9-11.8c0-20.7-16.8-37.5-37.5-37.5S30.4,44.1,30.4,64.8c0,16,10,29.5,24,35
		c-13.6,5.3-23.4,18.2-24,33.5c-0.8,21.4,16.3,38.9,37.5,38.9C74.2,172.2,80.1,170.7,85.3,168z M53.5,64.8c0-8,6.5-14.4,14.4-14.4
		s14.5,6.4,14.5,14.4S75.9,79.2,68,79.2S53.5,72.7,53.5,64.8z"/>
</g>
<g>
	<polygon class="st1" points="159.2,210.9 155.5,223.4 163.1,223.4 159.4,211 	"/>
	<polygon class="st1" points="29.3,210.9 25.6,223.4 33.2,223.4 29.5,211 	"/>
	<path class="st1" d="M87.9,207.8h-3.6v8.7h4c3.7,0,5.6-1.3,5.6-4.4C93.8,209.1,92,207.8,87.9,207.8z"/>
	<path class="st1" d="M0,0v188.1v11.5v48h191v-48v-11.5V0H0z M37.4,236.1l-1.8-5.3H23l-1.9,5.3h-10l14.6-36.5h7.3l14.5,36.5H37.4z
		 M71.7,236.1H51.5v-36.5h9.3v28.3h10.8V236.1z M88.6,224.6h-4.3v11.4h-8.9v-36.5h12.3c3.9,0,6.8,0.5,8.7,1.4
		c3.9,1.8,6.4,6,6.4,10.9C102.8,218.7,99,224.6,88.6,224.6z M137.2,236.1h-9.3v-14.6H116v14.6h-9.3v-36.5h9.3v13.7h11.9v-13.7h9.3
		V236.1z M167.4,236.1l-1.8-5.3h-12.7l-1.9,5.3h-10l14.6-36.5h7.3l14.5,36.5H167.4z M11.5,188.1V11.5h168v176.6H11.5z"/>
</g>
</svg>
